<svg width="19" height="22" viewBox="0 0 19 22" fill="none" xmlns="http://www.w3.org/2000/svg">
<path d="M17.001 19.9998H6.00098V5.99976H17.001V19.9998ZM17.001 3.99976H6.00098C5.47054 3.99976 4.96184 4.21047 4.58676 4.58554C4.21169 4.96062 4.00098 5.46932 4.00098 5.99976V19.9998C4.00098 20.5302 4.21169 21.0389 4.58676 21.414C4.96184 21.789 5.47054 21.9998 6.00098 21.9998H17.001C17.5314 21.9998 18.0401 21.789 18.4152 21.414C18.7903 21.0389 19.001 20.5302 19.001 19.9998V5.99976C19.001 5.46932 18.7903 4.96062 18.4152 4.58554C18.0401 4.21047 17.5314 3.99976 17.001 3.99976ZM14.001 -0.000244141H2.00098C1.47054 -0.000244141 0.961836 0.21047 0.586763 0.585542C0.21169 0.960615 0.000976563 1.46932 0.000976562 1.99976V15.9998H2.00098V1.99976H14.001V-0.000244141Z" fill="currentColor"/>
</svg>
